<svg width="311" height="200" viewBox="0 0 311 200" fill="none" xmlns="http://www.w3.org/2000/svg">
<path d="M3.12 123H7.84V151H3.12V123ZM5.92 127.16V123H11.56C13.5867 123 15.3467 123.36 16.84 124.08C18.36 124.773 19.5333 125.773 20.36 127.08C21.1867 128.36 21.6 129.893 21.6 131.68C21.6 133.467 21.1867 135.013 20.36 136.32C19.5333 137.627 18.36 138.64 16.84 139.36C15.3467 140.053 13.5867 140.4 11.56 140.4H5.92V136.24H11.56C13.1867 136.24 14.4933 135.853 15.48 135.08C16.4667 134.307 16.96 133.173 16.96 131.68C16.96 130.187 16.4667 129.067 15.48 128.32C14.4933 127.547 13.1867 127.16 11.56 127.16H5.92ZM27.3941 145.28C27.3941 145.893 27.5407 146.427 27.8341 146.88C28.1274 147.307 28.5274 147.627 29.0341 147.84C29.5674 148.053 30.1674 148.16 30.8341 148.16C31.6874 148.16 32.4607 147.987 33.1541 147.64C33.8741 147.293 34.4474 146.787 34.8741 146.12C35.3274 145.427 35.5541 144.627 35.5541 143.72L36.1941 146.12C36.1941 147.293 35.8474 148.28 35.1541 149.08C34.4874 149.853 33.6341 150.44 32.5941 150.84C31.5807 151.213 30.5407 151.4 29.4741 151.4C28.3274 151.4 27.2607 151.173 26.2741 150.72C25.2874 150.267 24.5007 149.6 23.9141 148.72C23.3274 147.84 23.0341 146.773 23.0341 145.52C23.0341 143.733 23.6607 142.32 24.9141 141.28C26.1674 140.213 27.9407 139.68 30.2341 139.68C31.4607 139.68 32.5141 139.813 33.3941 140.08C34.3007 140.347 35.0474 140.667 35.6341 141.04C36.2207 141.387 36.6341 141.707 36.8741 142V144.2C36.0474 143.613 35.1674 143.187 34.2341 142.92C33.3007 142.653 32.3141 142.52 31.2741 142.52C30.3674 142.52 29.6341 142.64 29.0741 142.88C28.5141 143.093 28.0874 143.4 27.7941 143.8C27.5274 144.2 27.3941 144.693 27.3941 145.28ZM26.0341 137.4L24.2741 134.36C25.1007 133.853 26.1674 133.36 27.4741 132.88C28.8074 132.4 30.3274 132.16 32.0341 132.16C33.5541 132.16 34.8874 132.387 36.0341 132.84C37.2074 133.293 38.1274 133.947 38.7941 134.8C39.4607 135.627 39.7941 136.653 39.7941 137.88V151H35.5541V138.72C35.5541 138.133 35.4474 137.653 35.2341 137.28C35.0474 136.907 34.7807 136.6 34.4341 136.36C34.0874 136.12 33.6741 135.947 33.1941 135.84C32.7141 135.733 32.1941 135.68 31.6341 135.68C30.7807 135.68 29.9674 135.787 29.1941 136C28.4474 136.187 27.7941 136.427 27.2341 136.72C26.7007 136.987 26.3007 137.213 26.0341 137.4ZM60.915 132.6L48.915 159.8H44.315L49.115 148.84L41.715 132.6H46.675L52.555 147.16L50.515 147.04L56.275 132.6H60.915ZM89.8222 139.32V151H85.5022V139.8C85.5022 138.413 85.2489 137.387 84.7422 136.72C84.2622 136.027 83.4889 135.68 82.4222 135.68C81.7022 135.68 81.0622 135.84 80.5022 136.16C79.9689 136.48 79.5422 136.947 79.2222 137.56C78.9289 138.173 78.7822 138.92 78.7822 139.8V151H74.4622V139.8C74.4622 138.413 74.2089 137.387 73.7022 136.72C73.2222 136.027 72.4489 135.68 71.3822 135.68C70.6355 135.68 69.9822 135.84 69.4222 136.16C68.8889 136.48 68.4755 136.947 68.1822 137.56C67.8889 138.173 67.7422 138.92 67.7422 139.8V151H63.5022V132.6H67.7422V135.28C68.2755 134.267 68.9689 133.507 69.8222 133C70.7022 132.467 71.7289 132.2 72.9022 132.2C74.2622 132.2 75.3822 132.48 76.2622 133.04C77.1689 133.6 77.8222 134.413 78.2222 135.48C78.8622 134.413 79.6622 133.6 80.6222 133.04C81.6089 132.48 82.7289 132.2 83.9822 132.2C85.2889 132.2 86.3689 132.48 87.2222 133.04C88.1022 133.573 88.7555 134.373 89.1822 135.44C89.6089 136.507 89.8222 137.8 89.8222 139.32ZM103.338 151.4C101.471 151.4 99.8181 151 98.3781 150.2C96.9648 149.4 95.8715 148.28 95.0981 146.84C94.3248 145.4 93.9381 143.72 93.9381 141.8C93.9381 139.853 94.3248 138.16 95.0981 136.72C95.8981 135.28 97.0181 134.173 98.4581 133.4C99.8981 132.6 101.591 132.2 103.538 132.2C105.485 132.2 107.138 132.573 108.498 133.32C109.858 134.067 110.898 135.147 111.618 136.56C112.365 137.947 112.738 139.627 112.738 141.6C112.738 141.813 112.725 142.04 112.698 142.28C112.698 142.52 112.685 142.693 112.658 142.8H96.4981V139.84H108.978L107.658 141.68C107.738 141.52 107.818 141.307 107.898 141.04C108.005 140.747 108.058 140.507 108.058 140.32C108.058 139.333 107.858 138.48 107.458 137.76C107.085 137.04 106.551 136.48 105.858 136.08C105.191 135.68 104.405 135.48 103.498 135.48C102.405 135.48 101.471 135.72 100.698 136.2C99.9248 136.68 99.3381 137.373 98.9381 138.28C98.5381 139.187 98.3248 140.307 98.2981 141.64C98.2981 142.973 98.4981 144.107 98.8981 145.04C99.2981 145.947 99.8848 146.64 100.658 147.12C101.458 147.6 102.418 147.84 103.538 147.84C104.711 147.84 105.738 147.6 106.618 147.12C107.498 146.64 108.231 145.907 108.818 144.92L112.538 146.44C111.578 148.093 110.338 149.333 108.818 150.16C107.298 150.987 105.471 151.4 103.338 151.4ZM128.702 139.8C128.702 138.44 128.422 137.413 127.862 136.72C127.302 136.027 126.435 135.68 125.262 135.68C124.462 135.68 123.755 135.853 123.142 136.2C122.528 136.52 122.048 137 121.702 137.64C121.355 138.253 121.182 138.973 121.182 139.8V151H116.862V132.6H121.182V135.44C121.768 134.347 122.515 133.533 123.422 133C124.355 132.467 125.462 132.2 126.742 132.2C128.822 132.2 130.408 132.84 131.502 134.12C132.595 135.373 133.142 137.107 133.142 139.32V151H128.702V139.8ZM136.098 132.6H146.538V136.4H136.098V132.6ZM139.178 126.2H143.458V151H139.178V126.2ZM163.71 142C164.323 143.067 164.977 144.013 165.67 144.84C166.39 145.64 167.177 146.267 168.03 146.72C168.883 147.147 169.843 147.36 170.91 147.36C172.19 147.36 173.23 147.013 174.03 146.32C174.83 145.627 175.23 144.733 175.23 143.64C175.23 142.6 174.977 141.773 174.47 141.16C173.963 140.52 173.257 139.987 172.35 139.56C171.47 139.107 170.443 138.667 169.27 138.24C168.577 138 167.803 137.68 166.95 137.28C166.097 136.853 165.283 136.333 164.51 135.72C163.737 135.08 163.097 134.307 162.59 133.4C162.083 132.467 161.83 131.347 161.83 130.04C161.83 128.547 162.217 127.24 162.99 126.12C163.763 124.973 164.803 124.093 166.11 123.48C167.443 122.84 168.95 122.52 170.63 122.52C172.283 122.52 173.723 122.813 174.95 123.4C176.177 123.987 177.203 124.733 178.03 125.64C178.883 126.547 179.55 127.493 180.03 128.48L176.19 130.64C175.843 129.947 175.403 129.307 174.87 128.72C174.337 128.107 173.71 127.627 172.99 127.28C172.297 126.907 171.483 126.72 170.55 126.72C169.243 126.72 168.283 127.027 167.67 127.64C167.057 128.227 166.75 128.92 166.75 129.72C166.75 130.44 166.963 131.093 167.39 131.68C167.843 132.24 168.537 132.773 169.47 133.28C170.403 133.787 171.617 134.307 173.11 134.84C173.937 135.133 174.763 135.507 175.59 135.96C176.443 136.413 177.217 136.987 177.91 137.68C178.603 138.347 179.15 139.133 179.55 140.04C179.977 140.947 180.19 142.013 180.19 143.24C180.19 144.547 179.937 145.72 179.43 146.76C178.923 147.8 178.23 148.68 177.35 149.4C176.47 150.093 175.47 150.627 174.35 151C173.257 151.4 172.11 151.6 170.91 151.6C169.257 151.6 167.723 151.28 166.31 150.64C164.923 149.973 163.71 149.093 162.67 148C161.63 146.907 160.803 145.72 160.19 144.44L163.71 142ZM189.114 143.8C189.114 145.107 189.394 146.12 189.954 146.84C190.514 147.56 191.367 147.92 192.514 147.92C193.341 147.92 194.061 147.76 194.674 147.44C195.287 147.093 195.767 146.613 196.114 146C196.461 145.36 196.634 144.627 196.634 143.8V132.6H200.954V151H196.634V148.16C196.047 149.227 195.287 150.04 194.354 150.6C193.447 151.133 192.354 151.4 191.074 151.4C189.021 151.4 187.434 150.76 186.314 149.48C185.221 148.2 184.674 146.467 184.674 144.28V132.6H189.114V143.8ZM209.351 141.8C209.351 142.973 209.604 144 210.111 144.88C210.618 145.733 211.298 146.413 212.151 146.92C213.031 147.427 214.004 147.68 215.071 147.68C215.951 147.68 216.791 147.547 217.591 147.28C218.391 147.013 219.098 146.64 219.711 146.16C220.324 145.68 220.778 145.147 221.071 144.56V149.32C220.431 149.96 219.564 150.467 218.471 150.84C217.378 151.213 216.178 151.4 214.871 151.4C212.978 151.4 211.271 151 209.751 150.2C208.258 149.373 207.071 148.24 206.191 146.8C205.338 145.333 204.911 143.667 204.911 141.8C204.911 139.907 205.338 138.24 206.191 136.8C207.071 135.36 208.258 134.24 209.751 133.44C211.271 132.613 212.978 132.2 214.871 132.2C216.178 132.2 217.378 132.387 218.471 132.76C219.564 133.133 220.431 133.64 221.071 134.28V139.04C220.778 138.427 220.311 137.893 219.671 137.44C219.058 136.96 218.351 136.587 217.551 136.32C216.751 136.053 215.924 135.92 215.071 135.92C214.004 135.92 213.031 136.173 212.151 136.68C211.298 137.187 210.618 137.88 210.111 138.76C209.604 139.64 209.351 140.653 209.351 141.8ZM228.726 141.8C228.726 142.973 228.979 144 229.486 144.88C229.993 145.733 230.673 146.413 231.526 146.92C232.406 147.427 233.379 147.68 234.446 147.68C235.326 147.68 236.166 147.547 236.966 147.28C237.766 147.013 238.473 146.64 239.086 146.16C239.699 145.68 240.153 145.147 240.446 144.56V149.32C239.806 149.96 238.939 150.467 237.846 150.84C236.753 151.213 235.553 151.4 234.246 151.4C232.353 151.4 230.646 151 229.126 150.2C227.633 149.373 226.446 148.24 225.566 146.8C224.713 145.333 224.286 143.667 224.286 141.8C224.286 139.907 224.713 138.24 225.566 136.8C226.446 135.36 227.633 134.24 229.126 133.44C230.646 132.613 232.353 132.2 234.246 132.2C235.553 132.2 236.753 132.387 237.846 132.76C238.939 133.133 239.806 133.64 240.446 134.28V139.04C240.153 138.427 239.686 137.893 239.046 137.44C238.433 136.96 237.726 136.587 236.926 136.32C236.126 136.053 235.299 135.92 234.446 135.92C233.379 135.92 232.406 136.173 231.526 136.68C230.673 137.187 229.993 137.88 229.486 138.76C228.979 139.64 228.726 140.653 228.726 141.8ZM253.221 151.4C251.354 151.4 249.701 151 248.261 150.2C246.848 149.4 245.754 148.28 244.981 146.84C244.208 145.4 243.821 143.72 243.821 141.8C243.821 139.853 244.208 138.16 244.981 136.72C245.781 135.28 246.901 134.173 248.341 133.4C249.781 132.6 251.474 132.2 253.421 132.2C255.368 132.2 257.021 132.573 258.381 133.32C259.741 134.067 260.781 135.147 261.501 136.56C262.248 137.947 262.621 139.627 262.621 141.6C262.621 141.813 262.608 142.04 262.581 142.28C262.581 142.52 262.568 142.693 262.541 142.8H246.381V139.84H258.861L257.541 141.68C257.621 141.52 257.701 141.307 257.781 141.04C257.888 140.747 257.941 140.507 257.941 140.32C257.941 139.333 257.741 138.48 257.341 137.76C256.968 137.04 256.434 136.48 255.741 136.08C255.074 135.68 254.288 135.48 253.381 135.48C252.288 135.48 251.354 135.72 250.581 136.2C249.808 136.68 249.221 137.373 248.821 138.28C248.421 139.187 248.208 140.307 248.181 141.64C248.181 142.973 248.381 144.107 248.781 145.04C249.181 145.947 249.768 146.64 250.541 147.12C251.341 147.6 252.301 147.84 253.421 147.84C254.594 147.84 255.621 147.6 256.501 147.12C257.381 146.64 258.114 145.907 258.701 144.92L262.421 146.44C261.461 148.093 260.221 149.333 258.701 150.16C257.181 150.987 255.354 151.4 253.221 151.4ZM267.584 144.96C268.171 145.6 268.758 146.16 269.344 146.64C269.958 147.093 270.571 147.44 271.184 147.68C271.798 147.893 272.411 148 273.024 148C273.798 148 274.398 147.827 274.824 147.48C275.278 147.133 275.504 146.653 275.504 146.04C275.504 145.507 275.331 145.053 274.984 144.68C274.638 144.28 274.158 143.947 273.544 143.68C272.931 143.387 272.211 143.093 271.384 142.8C270.558 142.48 269.731 142.107 268.904 141.68C268.104 141.227 267.438 140.64 266.904 139.92C266.398 139.2 266.144 138.293 266.144 137.2C266.144 136.08 266.424 135.147 266.984 134.4C267.571 133.653 268.344 133.107 269.304 132.76C270.291 132.387 271.344 132.2 272.464 132.2C273.478 132.2 274.424 132.347 275.304 132.64C276.211 132.933 277.024 133.32 277.744 133.8C278.464 134.28 279.078 134.827 279.584 135.44L277.184 138C276.571 137.28 275.838 136.693 274.984 136.24C274.131 135.787 273.251 135.56 272.344 135.56C271.731 135.56 271.224 135.693 270.824 135.96C270.424 136.227 270.224 136.613 270.224 137.12C270.224 137.547 270.398 137.933 270.744 138.28C271.118 138.6 271.598 138.893 272.184 139.16C272.798 139.427 273.478 139.707 274.224 140C275.238 140.4 276.171 140.84 277.024 141.32C277.878 141.8 278.558 142.387 279.064 143.08C279.598 143.773 279.864 144.68 279.864 145.8C279.864 147.533 279.264 148.933 278.064 150C276.891 151.04 275.291 151.56 273.264 151.56C272.011 151.56 270.851 151.373 269.784 151C268.744 150.6 267.824 150.093 267.024 149.48C266.251 148.84 265.598 148.173 265.064 147.48L267.584 144.96ZM284.538 144.96C285.124 145.6 285.711 146.16 286.298 146.64C286.911 147.093 287.524 147.44 288.138 147.68C288.751 147.893 289.364 148 289.978 148C290.751 148 291.351 147.827 291.778 147.48C292.231 147.133 292.458 146.653 292.458 146.04C292.458 145.507 292.284 145.053 291.938 144.68C291.591 144.28 291.111 143.947 290.498 143.68C289.884 143.387 289.164 143.093 288.338 142.8C287.511 142.48 286.684 142.107 285.858 141.68C285.058 141.227 284.391 140.64 283.858 139.92C283.351 139.2 283.098 138.293 283.098 137.2C283.098 136.08 283.378 135.147 283.938 134.4C284.524 133.653 285.298 133.107 286.258 132.76C287.244 132.387 288.298 132.2 289.418 132.2C290.431 132.2 291.378 132.347 292.258 132.64C293.164 132.933 293.978 133.32 294.698 133.8C295.418 134.28 296.031 134.827 296.538 135.44L294.138 138C293.524 137.28 292.791 136.693 291.938 136.24C291.084 135.787 290.204 135.56 289.298 135.56C288.684 135.56 288.178 135.693 287.778 135.96C287.378 136.227 287.178 136.613 287.178 137.12C287.178 137.547 287.351 137.933 287.698 138.28C288.071 138.6 288.551 138.893 289.138 139.16C289.751 139.427 290.431 139.707 291.178 140C292.191 140.4 293.124 140.84 293.978 141.32C294.831 141.8 295.511 142.387 296.018 143.08C296.551 143.773 296.818 144.68 296.818 145.8C296.818 147.533 296.218 148.933 295.018 150C293.844 151.04 292.244 151.56 290.218 151.56C288.964 151.56 287.804 151.373 286.738 151C285.698 150.6 284.778 150.093 283.978 149.48C283.204 148.84 282.551 148.173 282.018 147.48L284.538 144.96ZM301.531 123H306.931L305.931 142.52H302.531L301.531 123ZM301.411 149.04C301.411 148.267 301.677 147.627 302.211 147.12C302.771 146.613 303.451 146.36 304.251 146.36C305.051 146.36 305.717 146.613 306.251 147.12C306.784 147.627 307.051 148.267 307.051 149.04C307.051 149.813 306.784 150.467 306.251 151C305.717 151.507 305.051 151.76 304.251 151.76C303.451 151.76 302.771 151.507 302.211 151C301.677 150.467 301.411 149.813 301.411 149.04Z" fill="#57C89B"/>
<path d="M51.35 174.8V173.5H61.925V174.8H57.325V191H55.95V174.8H51.35ZM65.5543 171.5V191H64.2543V171.5H65.5543ZM71.6293 183.6C71.6293 182.617 71.4126 181.85 70.9793 181.3C70.5626 180.75 69.8793 180.475 68.9293 180.475C68.2793 180.475 67.696 180.633 67.1793 180.95C66.6793 181.267 66.2793 181.692 65.9793 182.225C65.696 182.758 65.5543 183.35 65.5543 184H65.1043C65.1043 183.083 65.2793 182.275 65.6293 181.575C65.996 180.858 66.4876 180.292 67.1043 179.875C67.721 179.458 68.4293 179.25 69.2293 179.25C70.0293 179.25 70.7043 179.417 71.2543 179.75C71.8043 180.067 72.221 180.542 72.5043 181.175C72.7876 181.792 72.9293 182.55 72.9293 183.45V191H71.6293V183.6ZM77.0764 187.55C77.0764 188.117 77.2014 188.592 77.4514 188.975C77.718 189.358 78.068 189.65 78.5014 189.85C78.9514 190.033 79.443 190.125 79.9764 190.125C80.6264 190.125 81.218 189.975 81.7514 189.675C82.3014 189.375 82.743 188.933 83.0764 188.35C83.4097 187.767 83.5764 187.05 83.5764 186.2L83.8764 187.3C83.8764 188.2 83.6597 188.942 83.2264 189.525C82.793 190.108 82.2514 190.542 81.6014 190.825C80.9514 191.108 80.293 191.25 79.6264 191.25C78.9764 191.25 78.3514 191.117 77.7514 190.85C77.1514 190.567 76.668 190.158 76.3014 189.625C75.9347 189.092 75.7514 188.417 75.7514 187.6C75.7514 186.483 76.1347 185.6 76.9014 184.95C77.6847 184.3 78.743 183.975 80.0764 183.975C80.8264 183.975 81.468 184.067 82.0014 184.25C82.5514 184.417 83.0014 184.608 83.3514 184.825C83.7014 185.042 83.9514 185.225 84.1014 185.375V186.2C83.5347 185.8 82.9264 185.508 82.2764 185.325C81.643 185.125 80.9764 185.025 80.2764 185.025C79.6264 185.025 79.0597 185.117 78.5764 185.3C78.1097 185.483 77.743 185.758 77.4764 186.125C77.2097 186.492 77.0764 186.967 77.0764 187.55ZM77.1264 181.6L76.4764 180.625C76.9097 180.325 77.468 180.025 78.1514 179.725C78.8514 179.408 79.7097 179.25 80.7264 179.25C81.593 179.25 82.3347 179.392 82.9514 179.675C83.568 179.958 84.043 180.367 84.3764 180.9C84.7097 181.433 84.8764 182.083 84.8764 182.85V191H83.5764V183.025C83.5764 182.692 83.5264 182.375 83.4264 182.075C83.3264 181.758 83.1597 181.475 82.9264 181.225C82.7097 180.975 82.4097 180.775 82.0264 180.625C81.643 180.475 81.1764 180.4 80.6264 180.4C80.0597 180.4 79.5514 180.467 79.1014 180.6C78.6514 180.733 78.2597 180.892 77.9264 181.075C77.6097 181.258 77.343 181.433 77.1264 181.6ZM95.8236 183.6C95.8236 182.617 95.607 181.85 95.1736 181.3C94.7403 180.75 94.057 180.475 93.1236 180.475C92.4736 180.475 91.8903 180.633 91.3736 180.95C90.8736 181.25 90.4736 181.667 90.1736 182.2C89.8903 182.733 89.7486 183.333 89.7486 184V191H88.4486V179.5H89.7486V181.9C90.0653 181.067 90.5403 180.417 91.1736 179.95C91.8236 179.483 92.5736 179.25 93.4236 179.25C94.6236 179.25 95.5403 179.633 96.1736 180.4C96.807 181.15 97.1236 182.167 97.1236 183.45V191H95.8236V183.6ZM100.946 171.5H102.246V191H100.946V171.5ZM107.171 179.5H108.846L103.421 184.25L109.321 191H107.671L101.771 184.25L107.171 179.5ZM127.668 179.5L120.168 196.5H118.718L121.668 189.825L117.018 179.5H118.568L122.743 189.3L122.143 189.25L126.218 179.5H127.668ZM128.367 185.25C128.367 184.083 128.625 183.05 129.142 182.15C129.658 181.25 130.358 180.542 131.242 180.025C132.142 179.508 133.15 179.25 134.267 179.25C135.383 179.25 136.383 179.508 137.267 180.025C138.167 180.542 138.875 181.25 139.392 182.15C139.908 183.05 140.167 184.083 140.167 185.25C140.167 186.4 139.908 187.433 139.392 188.35C138.875 189.25 138.167 189.958 137.267 190.475C136.383 190.992 135.383 191.25 134.267 191.25C133.15 191.25 132.142 190.992 131.242 190.475C130.358 189.958 129.658 189.25 129.142 188.35C128.625 187.433 128.367 186.4 128.367 185.25ZM129.692 185.25C129.692 186.183 129.892 187.008 130.292 187.725C130.692 188.442 131.233 189.008 131.917 189.425C132.617 189.825 133.4 190.025 134.267 190.025C135.133 190.025 135.908 189.825 136.592 189.425C137.292 189.008 137.842 188.442 138.242 187.725C138.642 187.008 138.842 186.183 138.842 185.25C138.842 184.333 138.642 183.517 138.242 182.8C137.842 182.067 137.292 181.5 136.592 181.1C135.908 180.683 135.133 180.475 134.267 180.475C133.4 180.475 132.617 180.683 131.917 181.1C131.233 181.5 130.692 182.058 130.292 182.775C129.892 183.492 129.692 184.317 129.692 185.25ZM144.412 186.8C144.412 187.8 144.628 188.592 145.062 189.175C145.495 189.742 146.178 190.025 147.112 190.025C147.762 190.025 148.337 189.867 148.837 189.55C149.353 189.233 149.753 188.808 150.037 188.275C150.337 187.742 150.487 187.15 150.487 186.5V179.5H151.787V191H150.487V188.6C150.17 189.433 149.695 190.083 149.062 190.55C148.428 191.017 147.678 191.25 146.812 191.25C145.612 191.25 144.695 190.867 144.062 190.1C143.428 189.317 143.112 188.267 143.112 186.95V179.5H144.412V186.8ZM162.354 179.5H167.754V180.725H162.354V179.5ZM168.004 173.4C167.821 173.133 167.596 172.933 167.329 172.8C167.062 172.65 166.779 172.575 166.479 172.575C166.062 172.575 165.729 172.683 165.479 172.9C165.246 173.117 165.071 173.425 164.954 173.825C164.837 174.225 164.779 174.683 164.779 175.2V191H163.479V175.05C163.479 174.267 163.587 173.6 163.804 173.05C164.037 172.483 164.379 172.05 164.829 171.75C165.279 171.433 165.854 171.275 166.554 171.275C166.921 171.275 167.237 171.333 167.504 171.45C167.787 171.55 168.029 171.683 168.229 171.85C168.446 172.017 168.612 172.183 168.729 172.35L168.004 173.4ZM169.309 185.25C169.309 184.083 169.567 183.05 170.084 182.15C170.601 181.25 171.301 180.542 172.184 180.025C173.084 179.508 174.092 179.25 175.209 179.25C176.326 179.25 177.326 179.508 178.209 180.025C179.109 180.542 179.817 181.25 180.334 182.15C180.851 183.05 181.109 184.083 181.109 185.25C181.109 186.4 180.851 187.433 180.334 188.35C179.817 189.25 179.109 189.958 178.209 190.475C177.326 190.992 176.326 191.25 175.209 191.25C174.092 191.25 173.084 190.992 172.184 190.475C171.301 189.958 170.601 189.25 170.084 188.35C169.567 187.433 169.309 186.4 169.309 185.25ZM170.634 185.25C170.634 186.183 170.834 187.008 171.234 187.725C171.634 188.442 172.176 189.008 172.859 189.425C173.559 189.825 174.342 190.025 175.209 190.025C176.076 190.025 176.851 189.825 177.534 189.425C178.234 189.008 178.784 188.442 179.184 187.725C179.584 187.008 179.784 186.183 179.784 185.25C179.784 184.333 179.584 183.517 179.184 182.8C178.784 182.067 178.234 181.5 177.534 181.1C176.851 180.683 176.076 180.475 175.209 180.475C174.342 180.475 173.559 180.683 172.859 181.1C172.176 181.5 171.634 182.058 171.234 182.775C170.834 183.492 170.634 184.317 170.634 185.25ZM185.354 179.5V191H184.054V179.5H185.354ZM189.179 181.025C188.929 180.842 188.687 180.708 188.454 180.625C188.237 180.525 187.979 180.475 187.679 180.475C187.112 180.475 186.654 180.633 186.304 180.95C185.971 181.267 185.729 181.692 185.579 182.225C185.429 182.758 185.354 183.35 185.354 184H184.754C184.754 183.083 184.896 182.275 185.179 181.575C185.462 180.858 185.846 180.292 186.329 179.875C186.829 179.458 187.379 179.25 187.979 179.25C188.346 179.25 188.687 179.308 189.004 179.425C189.337 179.525 189.637 179.7 189.904 179.95L189.179 181.025ZM200.781 171.5V191H199.481V171.5H200.781ZM210.606 185.25C210.606 186.483 210.356 187.55 209.856 188.45C209.373 189.35 208.706 190.042 207.856 190.525C207.023 191.008 206.089 191.25 205.056 191.25C204.089 191.25 203.239 190.992 202.506 190.475C201.773 189.942 201.198 189.225 200.781 188.325C200.381 187.408 200.181 186.383 200.181 185.25C200.181 184.1 200.381 183.075 200.781 182.175C201.198 181.275 201.773 180.567 202.506 180.05C203.239 179.517 204.089 179.25 205.056 179.25C206.089 179.25 207.023 179.492 207.856 179.975C208.706 180.458 209.373 181.15 209.856 182.05C210.356 182.933 210.606 184 210.606 185.25ZM209.306 185.25C209.306 184.25 209.106 183.392 208.706 182.675C208.306 181.958 207.773 181.417 207.106 181.05C206.439 180.667 205.698 180.475 204.881 180.475C204.181 180.475 203.514 180.683 202.881 181.1C202.248 181.517 201.739 182.083 201.356 182.8C200.973 183.517 200.781 184.333 200.781 185.25C200.781 186.167 200.973 186.983 201.356 187.7C201.739 188.417 202.248 188.983 202.881 189.4C203.514 189.817 204.181 190.025 204.881 190.025C205.698 190.025 206.439 189.842 207.106 189.475C207.773 189.092 208.306 188.542 208.706 187.825C209.106 187.108 209.306 186.25 209.306 185.25ZM213.546 174.3C213.546 174.033 213.638 173.817 213.821 173.65C214.005 173.467 214.221 173.375 214.471 173.375C214.738 173.375 214.955 173.467 215.121 173.65C215.305 173.817 215.396 174.033 215.396 174.3C215.396 174.55 215.305 174.767 215.121 174.95C214.955 175.133 214.738 175.225 214.471 175.225C214.221 175.225 214.005 175.133 213.821 174.95C213.638 174.767 213.546 174.55 213.546 174.3ZM213.821 179.5H215.121V191H213.821V179.5ZM219.357 171.5H220.657V191H219.357V171.5ZM224.606 171.5H225.906V191H224.606V171.5ZM229.855 174.3C229.855 174.033 229.947 173.817 230.13 173.65C230.313 173.467 230.53 173.375 230.78 173.375C231.047 173.375 231.263 173.467 231.43 173.65C231.613 173.817 231.705 174.033 231.705 174.3C231.705 174.55 231.613 174.767 231.43 174.95C231.263 175.133 231.047 175.225 230.78 175.225C230.53 175.225 230.313 175.133 230.13 174.95C229.947 174.767 229.855 174.55 229.855 174.3ZM230.13 179.5H231.43V191H230.13V179.5ZM243.04 183.6C243.04 182.617 242.824 181.85 242.39 181.3C241.957 180.75 241.274 180.475 240.34 180.475C239.69 180.475 239.107 180.633 238.59 180.95C238.09 181.25 237.69 181.667 237.39 182.2C237.107 182.733 236.965 183.333 236.965 184V191H235.665V179.5H236.965V181.9C237.282 181.067 237.757 180.417 238.39 179.95C239.04 179.483 239.79 179.25 240.64 179.25C241.84 179.25 242.757 179.633 243.39 180.4C244.024 181.15 244.34 182.167 244.34 183.45V191H243.04V183.6ZM247.563 191.75H248.888C248.888 192.467 249.054 193.108 249.388 193.675C249.721 194.242 250.188 194.692 250.788 195.025C251.404 195.358 252.113 195.525 252.912 195.525C253.629 195.525 254.304 195.358 254.938 195.025C255.571 194.692 256.088 194.167 256.488 193.45C256.904 192.75 257.113 191.85 257.113 190.75V179.5H258.413V190.75C258.413 192.067 258.154 193.167 257.638 194.05C257.121 194.95 256.446 195.625 255.613 196.075C254.779 196.525 253.879 196.75 252.912 196.75C251.863 196.75 250.929 196.542 250.113 196.125C249.313 195.708 248.688 195.117 248.238 194.35C247.788 193.6 247.563 192.733 247.563 191.75ZM247.288 185.25C247.288 184 247.538 182.933 248.038 182.05C248.538 181.15 249.204 180.458 250.038 179.975C250.888 179.492 251.821 179.25 252.838 179.25C253.838 179.25 254.696 179.517 255.413 180.05C256.129 180.567 256.688 181.275 257.088 182.175C257.504 183.075 257.713 184.1 257.713 185.25C257.713 186.383 257.504 187.408 257.088 188.325C256.688 189.225 256.129 189.942 255.413 190.475C254.696 190.992 253.838 191.25 252.838 191.25C251.821 191.25 250.888 191.008 250.038 190.525C249.204 190.042 248.538 189.35 248.038 188.45C247.538 187.55 247.288 186.483 247.288 185.25ZM248.613 185.25C248.613 186.25 248.804 187.108 249.188 187.825C249.588 188.542 250.121 189.092 250.788 189.475C251.471 189.842 252.213 190.025 253.013 190.025C253.729 190.025 254.396 189.817 255.013 189.4C255.646 188.983 256.154 188.417 256.538 187.7C256.921 186.967 257.113 186.133 257.113 185.2C257.113 184.533 257.004 183.917 256.788 183.35C256.571 182.783 256.263 182.283 255.863 181.85C255.479 181.417 255.038 181.083 254.538 180.85C254.054 180.6 253.546 180.475 253.013 180.475C252.213 180.475 251.471 180.667 250.788 181.05C250.121 181.417 249.588 181.958 249.188 182.675C248.804 183.392 248.613 184.25 248.613 185.25Z" fill="#5A5A5A"/>
<path d="M204.061 52C204.062 50.2935 204.558 48.6238 205.49 47.1938C206.135 46.2049 206.575 45.0964 206.783 43.9342C206.991 42.772 206.962 41.5799 206.699 40.4288C206.436 39.2778 205.945 38.1914 205.253 37.2343C204.561 36.2771 203.684 35.4688 202.673 34.8575C201.21 33.9754 200.036 32.6866 199.295 31.1485C198.553 29.6105 198.276 27.8899 198.498 26.1972C198.547 25.8186 198.572 25.4373 198.572 25.0555C198.567 22.8695 197.748 20.7637 196.275 19.1475C194.802 17.5313 192.78 16.5203 190.602 16.311C188.902 16.1473 187.287 15.4938 185.952 14.43C184.617 13.3662 183.62 11.9379 183.082 10.3186C182.711 9.19716 182.118 8.1618 181.338 7.27427C180.559 6.38675 179.608 5.66524 178.543 5.15279C177.478 4.64035 176.321 4.34746 175.14 4.29161C173.96 4.23576 172.78 4.41809 171.671 4.82772C170.068 5.41776 168.328 5.52916 166.662 5.14832C164.997 4.76748 163.479 3.91086 162.292 2.68285C161.471 1.8342 160.487 1.15934 159.399 0.698433C158.312 0.237525 157.142 0 155.961 0C154.779 0 153.61 0.237525 152.522 0.698433C151.435 1.15934 150.451 1.8342 149.63 2.68285C148.443 3.91104 146.925 4.76778 145.259 5.14863C143.594 5.52948 141.853 5.41798 140.25 4.82772C139.142 4.41809 137.962 4.23576 136.781 4.29161C135.601 4.34746 134.443 4.64035 133.379 5.15279C132.314 5.66524 131.363 6.38675 130.583 7.27427C129.803 8.1618 129.211 9.19716 128.84 10.3186C128.302 11.9381 127.305 13.3666 125.969 14.4304C124.634 15.4943 123.018 16.1476 121.318 16.311C119.141 16.5203 117.119 17.5314 115.646 19.1476C114.173 20.7638 113.354 22.8696 113.349 25.0555C113.349 25.4372 113.373 25.8186 113.422 26.1972C113.644 27.8899 113.367 29.6105 112.625 31.1485C111.884 32.6866 110.71 33.9754 109.247 34.8575C108.236 35.4688 107.359 36.2771 106.667 37.2343C105.975 38.1914 105.484 39.2778 105.221 40.4288C104.958 41.5799 104.929 42.772 105.137 43.9342C105.345 45.0964 105.785 46.2049 106.43 47.1938C107.362 48.6237 107.859 50.2935 107.859 52C107.859 53.7065 107.362 55.3763 106.43 56.8062C105.785 57.7951 105.345 58.9036 105.137 60.0658C104.929 61.228 104.958 62.4201 105.221 63.5712C105.484 64.7222 105.975 65.8086 106.667 66.7658C107.359 67.7229 108.236 68.5312 109.247 69.1425C110.71 70.0246 111.884 71.3134 112.625 72.8515C113.367 74.3895 113.644 76.1101 113.422 77.8028C113.373 78.1814 113.349 78.5628 113.349 78.9445C113.354 81.1304 114.173 83.2362 115.646 84.8524C117.119 86.4686 119.141 87.4797 121.318 87.689C123.018 87.8524 124.634 88.5058 125.969 89.5696C127.305 90.6334 128.302 92.0619 128.84 93.6814C129.211 94.8028 129.803 95.8382 130.583 96.7257C131.363 97.6133 132.314 98.3348 133.379 98.8472C134.443 99.3597 135.601 99.6525 136.781 99.7084C137.962 99.7642 139.142 99.5819 140.25 99.1723C141.853 98.582 143.594 98.4705 145.259 98.8514C146.925 99.2322 148.443 100.089 149.63 101.317C150.451 102.166 151.435 102.841 152.522 103.302C153.61 103.762 154.779 104 155.961 104C157.142 104 158.312 103.762 159.399 103.302C160.487 102.841 161.471 102.166 162.292 101.317C163.478 100.089 164.997 99.2322 166.662 98.8514C168.328 98.4705 170.068 98.582 171.671 99.1723C172.78 99.5819 173.96 99.7642 175.14 99.7084C176.321 99.6525 177.478 99.3597 178.543 98.8472C179.608 98.3348 180.559 97.6133 181.338 96.7257C182.118 95.8382 182.711 94.8028 183.082 93.6814C183.62 92.0621 184.617 90.6338 185.952 89.57C187.287 88.5062 188.902 87.8527 190.602 87.689C192.78 87.4797 194.802 86.4687 196.275 84.8525C197.748 83.2364 198.567 81.1305 198.572 78.9445C198.572 78.5627 198.547 78.1814 198.498 77.8028C198.276 76.1101 198.553 74.3895 199.295 72.8515C200.036 71.3134 201.21 70.0246 202.673 69.1425C203.684 68.5312 204.561 67.7229 205.253 66.7658C205.945 65.8086 206.436 64.7222 206.699 63.5712C206.962 62.4201 206.991 61.228 206.783 60.0658C206.575 58.9036 206.135 57.7951 205.49 56.8062C204.558 55.3762 204.062 53.7065 204.061 52ZM155.961 93.1568C133.211 93.1568 114.769 74.7307 114.769 52C114.769 29.2693 133.211 10.8433 155.961 10.8433C178.711 10.8433 197.152 29.2693 197.152 52C197.152 74.7307 178.711 93.1568 155.961 93.1568Z" fill="#57C89B"/>
<path d="M147.826 75.5732L130.653 58.5055L138.026 51.1774L147.022 60.1198L171.788 29.8132L179.88 36.3457L147.826 75.5732Z" fill="#57C89B"/>
</svg>
